<svg xmlns="http://www.w3.org/2000/svg" viewBox="140 20 1256 1000" fill="none">
  <path d="M412 871 Q330 668 202 507 L400 418 C440 480 490 510 540 505 C600 500 640 450 632 380 C628 330 615 300 600 275 L768 72 L936 275 C921 300 908 330 904 380 C896 450 936 500 996 505 C1046 510 1096 480 1136 418 L1334 507 Q1206 668 1124 871 Z" stroke="#195B77" stroke-width="64" stroke-linejoin="round"/>
  <path d="M768 500 Q800 600 916 637 Q800 674 768 772 Q736 674 620 637 Q736 600 768 500 Z" stroke="#195B77" stroke-width="64" stroke-linejoin="round" fill="#FDC528"/>
  <rect x="385" y="925" width="766" height="76" rx="14" fill="#FDC528"/>
</svg>
